<svg xmlns="http://www.w3.org/2000/svg" viewBox="0 0 24 24"><path fill="none" stroke="#303c42" stroke-linecap="round" stroke-linejoin="round" d="M3.5 11.5v6M13.5 11.5v6M20.5 11.5v6M6.5 11.5v3M8.5 11.5v3M10.5 11.5v3M15.5 11.5v3M18.5 11.5v3M18.5 16.5v1M15.5 16.5v1M10.5 16.5v1M8.5 16.5v1M6.5 16.5v1M23.5 6.5V5c0-.8-.7-1.5-1.5-1.5h-1.5m-17 0H2C1.2 3.5.5 4.2.5 5v1.5m20 14H22c.8 0 1.5-.7 1.5-1.5v-1.5m-23 0V19c0 .8.7 1.5 1.5 1.5h1.5M.5 11.5h23M3.5 6.5v3M6.5 6.5v3M8.5 6.5v3M10.5 6.5v3M13.5 6.5v3M15.5 6.5v3M18.5 6.5v3M20.5 6.5v3"/></svg>